<svg xmlns="http://www.w3.org/2000/svg" viewBox="0 0 305.8 64" style="fill: rgba(255, 255, 255);">
	<path d="M291.3,35c-1.4,0-2.8-0.2-4.1-0.5l4-8.9l4,8.9C293.9,34.8,292.6,35,291.3,35 M305.4,41.8l-9.3-20.4c-1.1-2.2-2.5-3.2-4.6-3.2h-0.4c-2.2,0-3.6,1-4.7,3.2l-9.3,20.4c-0.9,2-0.3,3.8,1.6,4.5c1.6,0.7,3.4,0.1,4.2-1.5l0.1-0.2l2.1-4.4c2.1,0.7,4.2,1,6.4,1c2.1,0,4.2-0.3,6.1-1l2,4.4c0.6,1.6,2.4,2.4,4.1,1.8c0,0,0,0,0.1,0l0.2-0.1c1.6-0.7,2.4-2.6,1.7-4.2C305.5,42,305.5,41.9,305.4,41.8 M271.8,39.9H270V21.3c0.1-1.8-1.4-3.3-3.2-3.4h-0.3c-1.8-0.1-3.3,1.3-3.4,3.1c0,0.1,0,0.2,0,0.3v18.7h-11.9V21.3c-0.1-1.9-1.7-3.4-3.7-3.3c-1.8,0.1-3.2,1.5-3.3,3.3v22c-0.1,1.8,1.2,3.3,3,3.4h21v3c-0.1,1.8,1.2,3.3,3,3.4h0.3c1.7,0.1,3.3-1.2,3.4-2.9c0-0.1,0-0.3,0-0.4v-6.3c0.2-1.7-1.1-3.2-2.7-3.4c-0.2,0-0.4,0-0.6,0 M237.2,39.9h-1.8V21.3c0.1-1.8-1.4-3.3-3.2-3.4H232c-1.8,0-3.2,1.4-3.3,3.2c0,0.1,0,0.1,0,0.2v18.7h-11.9V21.3c-0.1-1.9-1.7-3.4-3.7-3.3c-1.8,0.1-3.2,1.5-3.3,3.3v22c-0.1,1.8,1.2,3.3,3,3.4h21v3c-0.1,1.8,1.2,3.3,3,3.4h0.3c1.7,0.2,3.3-1.1,3.5-2.8c0-0.2,0-0.4,0-0.6v-6.3c0.2-1.7-1.1-3.2-2.7-3.4c-0.2,0-0.4,0-0.6,0 M199,18.2h-0.3c-2,0-3.4,1-4.8,3l-11.2,15.9V21.5c0-1.8-1.5-3.3-3.3-3.3c-1.8,0-3.3,1.5-3.3,3.3v21.2c-0.1,2,1.3,3.7,3.3,3.8c0.2,0,0.4,0,0.5,0h0.4c2.1,0,3.6-1.1,4.9-3l11.2-15.9v15.5c0,1.8,1.5,3.3,3.3,3.3c1.8,0,3.3-1.5,3.3-3.3l0,0V22c0.2-2-1.3-3.7-3.3-3.8C199.5,18.2,199.2,18.2,199,18.2 M165.6,18.2h-19.2c-1.7-0.1-3.3,1.2-3.4,2.9c0,0.1,0,0.3,0,0.4v22c-0.1,1.8,1.4,3.3,3.2,3.4h0.3c1.8,0.1,3.3-1.3,3.4-3.1c0-0.1,0-0.2,0-0.3V24.8h12.3v18.7c-0.1,1.8,1.3,3.3,3.1,3.4c0,0,0,0,0,0h0.4c1.8,0.1,3.4-1.3,3.5-3.1c0-0.1,0-0.2,0-0.3v-22c0-1.8-1.4-3.3-3.1-3.3c0,0,0,0,0,0L165.6,18.2 M115.9,40.4c-4.5,0-7.7-3.4-7.7-8c0-4.3,3.5-7.7,7.7-7.7s7.7,3.5,7.7,7.7l0,0C123.7,37,120.5,40.4,115.9,40.4 M115.9,18c-7.9-0.2-14.4,6-14.6,13.9c0,0,0,0,0,0c0,0.2,0,0.4,0,0.6c-0.2,7.9,6.1,14.4,13.9,14.5c0,0,0,0,0,0h0.6c7.9,0.1,14.5-6.2,14.6-14.1c0,0,0,0,0,0c0-0.1,0-0.3,0-0.4c0.1-7.8-6.2-14.3-14-14.4L115.9,18 M88,40H76.7c0.8-1.5,1.3-3.1,1.7-4.8c0.4-2.3,0.7-4.7,0.7-7l0.1-3.3h8.7L88,40z M96.6,40h-1.8V21.5c0.1-1.8-1.2-3.3-3-3.4H75.6c-1.9,0-3.1,1.2-3.1,3.4V26c0.1,2.8-0.1,5.6-0.6,8.4c-0.3,2-1.1,3.9-2.2,5.6h-0.8c-1.7-0.1-3.2,1.1-3.3,2.8c0,0.2,0,0.4,0,0.6v6.3c-0.1,1.8,1.2,3.3,3,3.4h0.3c1.7,0.1,3.3-1.2,3.4-2.9c0-0.1,0-0.3,0-0.4v-3H93v3c-0.1,1.8,1.2,3.3,3,3.4h0.3c1.7,0.1,3.3-1.2,3.4-2.9c0-0.1,0-0.3,0-0.4v-6.3c0.2-1.6-0.9-3.2-2.6-3.4c-0.2,0-0.5,0-0.7,0 M50.3,40.4c-4.5,0-7.7-3.4-7.7-8c0-4.3,3.5-7.7,7.7-7.7c4.3,0,7.7,3.5,7.7,7.7l0,0l0,0C58.1,37,55.1,40.4,50.3,40.4 M50.3,18c-7.9-0.2-14.4,6-14.6,13.9c0,0,0,0,0,0c0,0.2,0,0.4,0,0.6c-0.2,7.9,6,14.4,13.9,14.5c0,0,0.1,0,0.1,0h0.6c7.9,0.1,14.5-6.2,14.6-14.1c0,0,0,0,0,0c0-0.1,0-0.3,0-0.4C65,24,58.7,18,50.3,18 M22.2,40H11c0.8-1.6,1.3-3.2,1.7-4.9c0.4-2.3,0.7-4.7,0.7-7l0.1-3.3h8.7L22.2,40z M30.8,40h-1.8V21.5c0.1-1.8-1.2-3.3-3-3.4H10c-1.9,0-3.1,1.2-3.1,3.4V26c0.1,2.8-0.1,5.6-0.6,8.4c-0.3,2-1.1,3.9-2.2,5.6H3.3c-1.7-0.1-3.2,1.1-3.3,2.8c0,0.2,0,0.4,0,0.6v6.3c-0.1,1.8,1.2,3.3,3,3.4h0.3c1.7,0.1,3.3-1.2,3.4-2.9c0-0.1,0-0.3,0-0.4v-3h20.7v3c-0.1,1.8,1.2,3.3,3,3.4h0.3c1.7,0.1,3.3-1.2,3.4-2.9c0-0.1,0-0.3,0-0.4v-6.3c0.2-1.7-1.1-3.2-2.7-3.4C31.2,39.9,31,39.9,30.8,40"></path>
</svg>