<svg
                    width="0"
            height="0"
            viewBox="0 0 145 26"
            xmlns="http://www.w3.org/2000/svg"
          >
            <path
              fill="#ff6900"
              d="M11.608 0c7.549 0 13.349 5.199 13.349 12.914S19.154 26 11.608 26H3.125C1.419 25.992 0 24.855 0 22.865V3.236C0 1.26 1.42 0 3.125 0h8.483z"
            ></path>
            <path d="M20.293 10.112c-.04.324-.406.324-.57.04-.528-.894-1.217-1.054-2.312-1.136-.818-.041-1.785.04-2.678.04a.182.182 0 01-.202-.16c.164-.772.817-2.181 1.501-2.315a14.036 14.036 0 011.46-.117c1.867 0 2.883 2.154 2.801 3.656v-.008zM9.742 17.48c1.375.365 2.8.502 4.22.406a11.234 11.234 0 005.236-1.707c-.61 1.549-2.923 2.511-5.116 2.754 0 .122-.041.201-.041.324 1.664-.082 3.247-.649 3.977-1.137-.406 1.503-2.435 2.113-4.301 2.233-.047.112-.101.22-.164.325a9.33 9.33 0 002.724-.366c-.855 1.587-4.508 2.683-7.592 1.232a9.749 9.749 0 001.054-4.062l.003-.002zM19.928 6.668a3.568 3.568 0 00-2.558-.976c-1.218 0-2.231.325-3.735.366-1.014.04-1.948-2.181-3.166-2.478-.525-1.184-1.751-1.347-2.473-.736-.69-.407-1.747-.202-1.785.57-.77-.243-1.784.163-1.34 1.218-1.907.04-2.231 1.747-.975 1.908-1.665.935-.894 2.56.487 2.233.248 2.437 1.338 5.597-.446 6.377-.202.082-1.014.272-2.559-.082-.446-.123-.934-.243-1.378-.365v1.26c1.338.315 2.675.569 3.542.487 2.353-.242 2.476-2.18 2.353-3.898-.122-1.718-.692-3.615-.49-4.998l-.082-.081c-.852.9-1.42.651-1.509.368-.123-.57.894-1.3 1.46-1.543 0-.041.041-.082.041-.123-.528.082-1.177 0-1.218-.365-.04-.447.894-.895 2.112-.772.04 0 .04-.04.081-.04l-.242-.123c-.324-.164-.406-.448-.273-.608a.869.869 0 01.73-.273c.377.005.748.087 1.09.243.041 0 .041-.041.082-.041a1.452 1.452 0 01-.242-.243.308.308 0 01.024-.409.847.847 0 01.975.164l.202.201a.15.15 0 00.123-.04.44.44 0 01-.123-.273.243.243 0 01.136-.316H8.8a.493.493 0 01.488.201c.106.154.19.322.248.5-.853.081-1.866.406-2.476 1.259A3.873 3.873 0 006.57 8.57c.242 1.26.73 2.438 1.177 3.656v.041c.97 2.8 2.844 9.703-6.206 13.359.47.225.98.35 1.501.365h.934a11.716 11.716 0 004.019-3.329c4.14 1.827 7.9.894 9.535-2.113a3.968 3.968 0 001.811-2.925 3.042 3.042 0 00.61-2.63c-.04-.164-.201-.164-.446-.042-3.367 2.032-6.332 2.356-9.862 1.3a26.707 26.707 0 00-.488-3.29c-.081-1.42.365-2.112 2.964-1.26 1.706.448 2.477 1.22 3.084 1.636.272.202.648.448.853.273a.78.78 0 00.163-.608c-.04-.771-.406-2.072-.73-2.56.77-.042 1.543-.042 2.313 0 .975.164 1.054.69 1.177.894.272.818 1.866.608 1.989-.081.242-1.42.324-3.29-1.055-4.589h.014zM1.907 18.844c-.635-.04-1.272-.04-1.907 0v.853c1.09-.243 1.784-.365 1.784-.365l.123-.488z"></path>
            <path
              fill="#fff"
              d="M12.056 9.95c-1.42-.324-2.997-.73-3.814-1.949 0-.04-.041-.04-.082-.04a.04.04 0 00-.04.04c-.007.07.007.14.04.202l-.123.041c-.201-.324-.272-.69-.04-.976.324-.406.934-.365 1.34-.123l-.041.137a.89.89 0 00-.578.027.22.22 0 00-.098.297l.017.027c.689 1.3 2.724 1.584 5.113 1.383a.286.286 0 00.324-.243c.179-.807.571-1.55 1.136-2.154a6.356 6.356 0 01-1.177.082c-1.217.082-1.947-.082-2.152-.243l.041-.122a.286.286 0 00.273 0 .15.15 0 00-.041-.123c-.23-.215-1.286-1.306-1.286-1.306-.123-.935-1.46-.935-1.989-.04l-.16-.039c.034-.174.103-.34.201-.488-1.09.243-1.746 1.26-1.866 2.181-.488 4.144 5.803 3.168 7.59 4.834.04.04.122.163.163.082.041-.082-.73-1.055-2.76-1.503l.009.017zM9.868 4.98c.273-.081.73.203.935.65.204.447.163.894-.123 1.014-.286.12-.736-.18-.94-.646-.04-.082-.04-.123-.082-.202H9.7a.273.273 0 00.273.082c.122-.082.081-.243 0-.406a.376.376 0 00-.325-.243l-.04-.041c.059-.09.143-.16.242-.202M19.196 16.164a11.235 11.235 0 01-5.236 1.706 14.349 14.349 0 01-4.22-.406c0 .41-.042.817-.123 1.219 1.185.278 2.396.428 3.613.447-.082.447-.57 2.072-1.747 3.086 2.18.082 4.18-.772 4.79-1.909a8.287 8.287 0 01-2.725.366c.041-.123.123-.202.164-.325 1.866-.081 3.896-.69 4.301-2.232-.73.488-2.313 1.055-3.977 1.136 0-.122.04-.201.04-.324 2.18-.273 4.507-1.219 5.114-2.762"
            ></path><path d="M139.703 12.857a5.38 5.38 0 01-1.496-.197l1.463-3.255 1.463 3.255a4.896 4.896 0 01-1.433.197h.003zm5.173 2.475l-3.416-7.445c-.389-.818-.91-1.172-1.692-1.172h-.13c-.818 0-1.335.357-1.725 1.172l-3.416 7.456c-.324.75-.098 1.401.586 1.66a1.142 1.142 0 001.261-.185c.112-.102.202-.224.267-.36l.033-.076.781-1.636c.754.237 1.54.358 2.33.36a6.632 6.632 0 002.245-.34l.749 1.635a1.146 1.146 0 001.484.651l.077-.032c.618-.273.877-.944.545-1.66l.021-.028zm-12.322-.657h-.651V7.827a1.204 1.204 0 00-1.171-1.235h-.087a1.18 1.18 0 00-1.147.755 1.188 1.188 0 00-.076.48v6.832h-4.359V7.827a1.271 1.271 0 00-1.27-1.27 1.269 1.269 0 00-1.269 1.27v8.029a1.164 1.164 0 00.668 1.127c.14.066.291.105.446.113h7.704v1.09a1.192 1.192 0 00.301.85 1.187 1.187 0 00.813.388h.123a1.159 1.159 0 001.237-1.238v-2.29c0-.817-.488-1.237-1.237-1.237l-.025.016zm-12.599-.016h-.651V7.827a1.21 1.21 0 00-1.172-1.238h-.098a1.174 1.174 0 00-1.16.754 1.191 1.191 0 00-.077.484v6.832h-4.358V7.827a1.271 1.271 0 00-2.168-.899 1.27 1.27 0 00-.371.899v8.029a1.178 1.178 0 001.114 1.24h7.704v1.09a1.173 1.173 0 00.669 1.125c.139.067.291.105.445.113h.123a1.159 1.159 0 001.237-1.238v-2.29c0-.817-.488-1.237-1.237-1.237zM105.93 6.682h-.098c-.749 0-1.237.357-1.757 1.107l-4.095 5.828V7.92a1.227 1.227 0 00-2.092-.868c-.23.23-.36.542-.36.868v7.75a1.318 1.318 0 001.4 1.401h.132c.781 0 1.302-.39 1.789-1.106l4.087-5.83v5.699a1.205 1.205 0 002.408 0v-7.75c0-.849-.52-1.402-1.433-1.402h.019zm-12.254 0h-7.028A1.16 1.16 0 0085.41 7.92v8.042A1.206 1.206 0 0086.58 17.2h.1a1.177 1.177 0 001.237-1.238V9.124h4.49v6.838a1.187 1.187 0 001.136 1.24h.133a1.212 1.212 0 001.27-1.153V7.887a1.18 1.18 0 00-1.152-1.208h-.117v.003zm-18.17 8.138c-1.66 0-2.83-1.238-2.83-2.931a2.793 2.793 0 012.68-2.895h.15c1.659 0 2.83 1.237 2.83 2.898 0 1.66-1.139 2.93-2.83 2.93v-.002zm0-8.204a5.208 5.208 0 00-4.892 3.102 5.218 5.218 0 00-.445 1.986v.22c0 3.062 2.31 5.308 5.337 5.308a5.256 5.256 0 005.337-5.18v-.158C80.81 8.833 78.5 6.62 75.505 6.62v-.003zm-10.249 8.046h-4.086c.274-.56.482-1.15.618-1.759.167-.848.258-1.71.272-2.574l.033-1.205h3.187l-.024 5.537zm3.157 0h-.65V7.92a1.177 1.177 0 00-1.115-1.238h-5.882c-.683 0-1.138.455-1.138 1.238v1.635a15.018 15.018 0 01-.24 3.054 5.067 5.067 0 01-.817 2.05h-.273c-.817 0-1.204.52-1.204 1.237v2.312a1.179 1.179 0 001.114 1.238h.123a1.16 1.16 0 001.237-1.238v-1.112h7.581v1.107a1.179 1.179 0 001.114 1.238h.115a1.16 1.16 0 001.237-1.238v-2.307c.032-.717-.357-1.237-1.204-1.237l.002.002zm-16.893.16c-1.659 0-2.83-1.237-2.83-2.93a2.793 2.793 0 012.68-2.896h.15c1.66 0 2.83 1.238 2.83 2.898 0 1.66-1.105 2.931-2.83 2.931v-.003zm0-8.203a5.208 5.208 0 00-4.892 3.102 5.218 5.218 0 00-.445 1.985v.221c0 3.062 2.308 5.294 5.343 5.294a5.256 5.256 0 005.337-5.18v-.158c0-3.061-2.31-5.275-5.337-5.275l-.006.011zm-10.308 8.023h-4.087c.275-.56.482-1.15.619-1.758.166-.848.258-1.71.272-2.574l.033-1.205h3.187l-.024 5.537zm3.157 0h-.651V7.92a1.179 1.179 0 00-1.114-1.238h-5.882c-.684 0-1.139.455-1.139 1.238v1.635c0 1.172 0 2.083-.229 3.062a5.065 5.065 0 01-.817 2.05h-.272c-.818 0-1.204.52-1.204 1.238v2.312a1.178 1.178 0 001.264 1.229 1.16 1.16 0 001.236-1.238v-1.112h7.582v1.107a1.177 1.177 0 001.114 1.238h.123a1.16 1.16 0 001.237-1.238v-2.307c0-.717-.39-1.237-1.237-1.237"></path>
          </svg>