<svg xmlns="http://www.w3.org/2000/svg" viewBox="0 0 140 140" style="fill: rgba(255, 255, 255, 0.7);">
	<path d="M49.91,22.28A27.69,27.69,0,0,0,22.28,50V90a27.68,27.68,0,0,0,27.62,27.69H90.09A27.68,27.68,0,0,0,117.72,90V50a27.69,27.69,0,0,0-27.62-27.7H49.91Zm0,8.2H90.09A19.34,19.34,0,0,1,109.54,50V90a19.33,19.33,0,0,1-19.44,19.49H49.91A19.33,19.33,0,0,1,30.47,90V50A19.33,19.33,0,0,1,49.91,30.49Zm45.71,8.2a5.74,5.74,0,1,0,5.72,5.74A5.73,5.73,0,0,0,95.61,38.69ZM70,45.43A24.57,24.57,0,1,0,94.52,70,24.6,24.6,0,0,0,70,45.43Zm0,8.2A16.37,16.37,0,1,1,53.67,70,16.29,16.29,0,0,1,70,53.63Z"></path>
</svg>