<svg fill="none" xmlns="http://www.w3.org/2000/svg" viewBox="0 0 24 24"><path fill-rule="evenodd" clip-rule="evenodd" d="M15.8 5.15l.08.63 1.2.2c.8.15 1.45.26 1.98.4.55.14 1.04.33 1.47.66a4 4 0 011.42 2.02c.16.52.17 1.05.11 1.61-.05.54-.16 1.2-.3 1.99l-.78 4.41c-.14.8-.25 1.45-.4 1.98a4.1 4.1 0 01-.65 1.47 4 4 0 01-2.02 1.42c-.53.16-1.05.16-1.61.11-.54-.05-1.2-.16-2-.3l-2.44-.44c-.79-.14-1.44-.25-1.97-.39a4.09 4.09 0 01-1.47-.66A4.1 4.1 0 017 18.21h-.31c-.57 0-1.1-.05-1.6-.26a4 4 0 01-1.89-1.59 4.09 4.09 0 01-.53-1.52c-.09-.54-.15-1.2-.22-2l-.39-4.47a26.7 26.7 0 01-.13-2c0-.57.05-1.1.26-1.6a4 4 0 011.59-1.89c.46-.29.96-.43 1.52-.53.53-.09 1.2-.15 2-.22l2.47-.21c.8-.07 1.47-.13 2-.13.57 0 1.1.05 1.6.25a4 4 0 011.9 1.59c.28.46.43.97.52 1.52zM6.93 16.2h-.27c-.44 0-.66-.04-.83-.1a2 2 0 01-.94-.8c-.1-.15-.18-.36-.26-.8-.07-.44-.12-1.02-.2-1.88l-.38-4.38c-.08-.85-.13-1.43-.13-1.88 0-.44.04-.67.11-.84a2 2 0 01.8-.94c.14-.1.36-.18.8-.25.44-.08 1.02-.13 1.87-.2l2.4-.22c.85-.07 1.43-.12 1.88-.12.44 0 .67.04.83.1a2 2 0 01.95.8c.09.14.16.34.24.72 0 0-.44-.1-1.16-.16a4.09 4.09 0 00-1.6.12 4 4 0 00-2.03 1.41c-.33.44-.51.93-.66 1.48-.13.52-.25 1.18-.39 1.97l-.78 4.41c-.1.6-.2 1.11-.25 1.56zm13.1-6.55c.05.17.07.4.03.84-.04.45-.14 1.02-.29 1.86l-.76 4.34c-.15.84-.25 1.41-.37 1.85-.1.43-.21.64-.32.78a2 2 0 01-1.01.7c-.17.06-.4.08-.84.04-.45-.04-1.02-.14-1.86-.3l-2.37-.4a25.8 25.8 0 01-1.85-.37 2.16 2.16 0 01-.78-.32 2 2 0 01-.7-1.02c-.06-.16-.08-.4-.04-.83.04-.45.14-1.03.29-1.87l.76-4.33c.15-.85.25-1.42.37-1.86.11-.42.21-.63.32-.77a2 2 0 011.01-.71c.17-.05.4-.08.84-.04.45.05 1.02.15 1.87.3l2.36.41c.84.15 1.42.25 1.85.37.43.1.64.21.78.32a2 2 0 01.7 1z" fill="#000"></path></svg>