<svg xmlns="http://www.w3.org/2000/svg" width="14" height="14" viewBox="0 0 14 14" fill="none">
    <path
        d="M7.86099 0.879937C7.72115 0.809276 7.56667 0.772461 7.40999 0.772461C7.25331 0.772461 7.09883 0.809276 6.95899 0.879937C6.71399 1.00294 6.58099 1.23894 6.49799 1.40794C6.40799 1.58994 6.31299 1.83494 6.20199 2.11994L5.27399 4.50994C5.25226 4.56824 5.22891 4.62593 5.20399 4.68294V4.68494H5.19999C5.16399 4.69094 5.11399 4.69494 5.01599 4.70494L2.51199 4.91894C2.23999 4.94294 2.00199 4.96294 1.81699 4.99594C1.64099 5.02794 1.39899 5.08594 1.21699 5.26994C1.11096 5.37753 1.03069 5.50774 0.982195 5.6508C0.9337 5.79386 0.918245 5.94605 0.93699 6.09594C0.96699 6.35194 1.12299 6.54594 1.24399 6.67894C1.36999 6.81794 1.54599 6.97894 1.74699 7.16394L3.73399 8.98694L3.85899 9.10494L3.86099 9.10694V9.10994C3.85499 9.14294 3.84499 9.18894 3.82499 9.27794L3.23299 11.9379C3.17479 12.1792 3.12642 12.4227 3.08799 12.6679C3.06399 12.8519 3.04599 13.1129 3.17499 13.3479C3.24953 13.4836 3.35453 13.6 3.48172 13.6882C3.60892 13.7763 3.75483 13.8338 3.90799 13.8559C4.17299 13.8939 4.41199 13.7839 4.57499 13.6959C4.79088 13.5739 5.00172 13.4431 5.20699 13.3039L7.24299 11.9719C7.32899 11.9159 7.37299 11.8869 7.40699 11.8679L7.40999 11.8659L7.41299 11.8679C7.44599 11.8869 7.49099 11.9159 7.57699 11.9719L9.61299 13.3039C9.85899 13.4649 10.071 13.6039 10.245 13.6969C10.408 13.7839 10.646 13.8939 10.912 13.8559C11.0651 13.8338 11.2111 13.7763 11.3383 13.6882C11.4655 13.6 11.5704 13.4836 11.645 13.3479C11.775 13.1129 11.755 12.8519 11.732 12.6679C11.6935 12.4227 11.6452 12.1792 11.587 11.9379L10.995 9.27794C10.975 9.18794 10.965 9.14294 10.96 9.10994V9.10694L10.961 9.10494L11.086 8.98694L13.073 7.16394C13.274 6.97894 13.45 6.81794 13.576 6.67894C13.696 6.54594 13.852 6.35194 13.884 6.09594C13.9026 5.94597 13.887 5.79374 13.8383 5.65067C13.7897 5.50761 13.7092 5.37744 13.603 5.26994C13.421 5.08694 13.179 5.02794 13.003 4.99594C12.818 4.96294 12.58 4.94294 12.308 4.91894L9.80399 4.70394C9.7425 4.69962 9.68115 4.69362 9.61999 4.68594H9.61699L9.61499 4.68294C9.59044 4.62624 9.56743 4.56888 9.54599 4.51094L8.61799 2.12094C8.52888 1.87941 8.43013 1.64156 8.32199 1.40794C8.23899 1.23794 8.10599 1.00294 7.86199 0.878937L7.86099 0.879937Z"
        fill="#FFD200" />
</svg>