<svg xmlns="http://www.w3.org/2000/svg" viewBox="0 85.333 512 341.333">
    <path fill="#D80027" d="M0 85.337h512v341.326H0z"></path>
    <path fill="#6DA544" d="M0 322.783h512v103.88H0z"></path>
    <path fill="#338AF3" d="M0 85.337h512v104.515H0z"></path>
    <path fill="#FFF" d="M0 210.877h512v89.656H0z"></path>
    <path fill="#338AF3" d="M0 85.337h512v104.515H0z"></path>
    <path
        d="M188.688 137.589c0-15.984 11.234-29.339 26.236-32.614a33.531 33.531 0 00-7.155-.777c-18.442 0-33.391 14.949-33.391 33.391s14.949 33.391 33.391 33.391c2.458 0 4.85-.273 7.155-.777-15.002-3.275-26.236-16.63-26.236-32.614zm45.97 15.177l2.261 6.957h7.315l-5.918 4.301 2.261 6.956-5.919-4.3-5.918 4.3 2.261-6.956-5.918-4.301h7.315zm23.348 0l2.26 6.957h7.315l-5.918 4.301 2.261 6.956-5.918-4.3-5.918 4.3 2.26-6.956-5.917-4.301h7.314zm23.347 0l2.26 6.957h7.315l-5.917 4.301 2.26 6.956-5.918-4.3-5.918 4.3 2.26-6.956-5.918-4.301h7.315zm23.347 0l2.262 6.957h7.315l-5.919 4.301 2.261 6.956-5.919-4.3-5.918 4.3 2.262-6.956-5.919-4.301h7.314zm23.348 0l2.26 6.957h7.315l-5.918 4.301 2.261 6.956-5.918-4.3-5.918 4.3 2.26-6.956-5.917-4.301h7.314zm-70.042-24.284l2.26 6.956h7.315l-5.918 4.3 2.261 6.957-5.918-4.299-5.918 4.299 2.26-6.957-5.917-4.3h7.314zm23.347 0l2.26 6.956h7.315l-5.917 4.3 2.26 6.957-5.918-4.299-5.918 4.299 2.26-6.957-5.918-4.3h7.315zm23.347 0l2.262 6.956h7.315l-5.919 4.3 2.261 6.957-5.919-4.299-5.918 4.299 2.262-6.957-5.919-4.3h7.314zm23.348 0l2.26 6.956h7.315l-5.918 4.3 2.261 6.957-5.918-4.299-5.918 4.299 2.26-6.957-5.917-4.3h7.314zm-46.695-24.284l2.26 6.956h7.315l-5.917 4.3 2.26 6.957-5.918-4.3-5.918 4.3 2.26-6.957-5.918-4.3h7.315zm23.347 0l2.262 6.956h7.315l-5.919 4.3 2.261 6.957-5.919-4.3-5.918 4.3 2.262-6.957-5.919-4.3h7.314zm23.348 0l2.26 6.956h7.315l-5.918 4.3 2.261 6.957-5.918-4.3-5.918 4.3 2.26-6.957-5.917-4.3h7.314z"
        fill="#FFF"></path>
</svg>